<?xml version="1.0" encoding="UTF-8" standalone="no"?>
<!-- Created with Inkscape (http://www.inkscape.org/) -->

<svg
   xmlns:dc="http://purl.org/dc/elements/1.1/"
   xmlns:cc="http://creativecommons.org/ns#"
   xmlns:rdf="http://www.w3.org/1999/02/22-rdf-syntax-ns#"
   xmlns:svg="http://www.w3.org/2000/svg"
   xmlns="http://www.w3.org/2000/svg"
   xmlns:sodipodi="http://sodipodi.sourceforge.net/DTD/sodipodi-0.dtd"
   xmlns:inkscape="http://www.inkscape.org/namespaces/inkscape"
   width="23.698647"
   height="22.790339"
   id="svg3057"
   version="1.1"
   inkscape:version="0.48.4 r9939"
   sodipodi:docname="New document 2">
  <defs
     id="defs3059" />
  <sodipodi:namedview
     id="base"
     pagecolor="#ffffff"
     bordercolor="#666666"
     borderopacity="1.0"
     inkscape:pageopacity="0.0"
     inkscape:pageshadow="2"
     inkscape:zoom="8.128804"
     inkscape:cx="29.630445"
     inkscape:cy="-8.0958323"
     inkscape:document-units="px"
     inkscape:current-layer="layer1"
     showgrid="false"
     fit-margin-top="0"
     fit-margin-left="0"
     fit-margin-right="0"
     fit-margin-bottom="0"
     inkscape:window-width="1920"
     inkscape:window-height="1078"
     inkscape:window-x="0"
     inkscape:window-y="0"
     inkscape:window-maximized="1" />
  <metadata
     id="metadata3062">
    <rdf:RDF>
      <cc:Work
         rdf:about="">
        <dc:format>image/svg+xml</dc:format>
        <dc:type
           rdf:resource="http://purl.org/dc/dcmitype/StillImage" />
        <dc:title></dc:title>
      </cc:Work>
    </rdf:RDF>
  </metadata>
  <g
     inkscape:label="Layer 1"
     inkscape:groupmode="layer"
     id="layer1"
     transform="translate(-48.90625,-196.27216)">
    <path
       inkscape:connector-curvature="0"
       style="color:#000000;fill:#0091e5;fill-opacity:1;fill-rule:nonzero;stroke:none;stroke-width:5.90899992000000029;marker:none;visibility:visible;display:inline;overflow:visible;enable-background:accumulate"
       d="m 52.96875,198.4375 c -2.494067,2.15341 -4.0625,5.30496 -4.0625,8.84375 0,6.49959 5.315224,11.78125 11.875,11.78125 5.279232,0 9.734777,-3.43655 11.28125,-8.15625 -0.04572,0.0796 -0.07258,0.17381 -0.125,0.25 -1.932787,2.80898 -7.702532,2.17429 -12.90625,-1.40625 -5.062579,-3.48343 -7.702382,-8.45743 -6.0625,-11.3125 z m 19.5625,10.09375 c 0.0036,0.0417 0.02868,0.0837 0.03125,0.125 0.0038,-0.0324 0.02774,-0.0613 0.03125,-0.0937 l -0.0625,-0.0312 z"
       id="path3114" />
    <path
       sodipodi:type="arc"
       style="color:#000000;fill:#0091e5;fill-opacity:1;fill-rule:nonzero;stroke:none;stroke-width:5.90899992000000029;marker:none;visibility:visible;display:inline;overflow:visible;enable-background:accumulate"
       id="path3119"
       sodipodi:cx="37.702969"
       sodipodi:cy="202.41084"
       sodipodi:rx="3.2690437"
       sodipodi:ry="3.2690437"
       d="m 40.972012,202.41084 c 0,1.80545 -1.4636,3.26905 -3.269043,3.26905 -1.805443,0 -3.269044,-1.4636 -3.269044,-3.26905 0,-1.80544 1.463601,-3.26904 3.269044,-3.26904 1.805443,0 3.269043,1.4636 3.269043,3.26904 z"
       transform="matrix(0.75206612,0,0,0.75206612,33.637829,53.098733)" />
    <path
       transform="matrix(0.75206612,0,0,0.75206612,37.600306,47.695353)"
       d="m 40.972012,202.41084 c 0,1.80545 -1.4636,3.26905 -3.269043,3.26905 -1.805443,0 -3.269044,-1.4636 -3.269044,-3.26905 0,-1.80544 1.463601,-3.26904 3.269044,-3.26904 1.805443,0 3.269043,1.4636 3.269043,3.26904 z"
       sodipodi:ry="3.2690437"
       sodipodi:rx="3.2690437"
       sodipodi:cy="202.41084"
       sodipodi:cx="37.702969"
       id="path3126"
       style="color:#000000;fill:#0091e5;fill-opacity:1;fill-rule:nonzero;stroke:none;stroke-width:5.90899992000000029;marker:none;visibility:visible;display:inline;overflow:visible;enable-background:accumulate"
       sodipodi:type="arc" />
    <path
       style="font-size:medium;font-style:normal;font-variant:normal;font-weight:normal;font-stretch:normal;text-indent:0;text-align:start;text-decoration:none;line-height:normal;letter-spacing:normal;word-spacing:normal;text-transform:none;direction:ltr;block-progression:tb;writing-mode:lr-tb;text-anchor:start;baseline-shift:baseline;color:#000000;fill:#0091e5;fill-opacity:1;stroke:none;stroke-width:1;marker:none;visibility:visible;display:inline;overflow:visible;enable-background:accumulate;font-family:Sans;-inkscape-font-specification:Sans"
       d="m 67.224585,200.18845 c -2.409725,-1.90108 -5.073141,-3.17812 -7.499739,-3.67593 -2.426599,-0.49781 -4.646397,-0.25386 -6.029913,1.02843 2.82165,-0.71185 4.081143,-0.42509 5.817553,-0.0884 2.242919,0.46012 4.821167,1.64364 7.114248,3.44689 l 0.02457,0.0169 c 3.077664,2.53124 5.357135,5.52535 5.575659,9.62941 0.669898,-1.45548 0.413704,-3.26604 -0.488063,-5.0788 -0.901767,-1.81276 -2.46062,-3.65833 -4.514316,-5.27854 z"
       id="path3123"
       inkscape:connector-curvature="0"
       sodipodi:nodetypes="cscccccscc" />
  </g>
</svg>
